<svg width="27" height="27" viewBox="0 0 27 27" fill="none" xmlns="http://www.w3.org/2000/svg">
<path d="M13.4784 26.3743C6.39422 26.3743 0.703613 20.6916 0.703613 13.6172C0.703613 6.54282 6.39422 0.860107 13.4784 0.860107C20.5627 0.860107 26.2533 6.54282 26.2533 13.6172C26.2533 20.6916 20.5627 26.3743 13.4784 26.3743ZM13.4784 3.17958C7.6717 3.17958 3.02631 7.81853 3.02631 13.6172C3.02631 19.4159 7.6717 24.0548 13.4784 24.0548C19.2852 24.0548 23.9306 19.4159 23.9306 13.6172C23.9306 7.81853 19.2852 3.17958 13.4784 3.17958Z" fill="#6598cb"/>
<path d="M13.4784 14.7769C12.7816 14.7769 12.3171 14.3131 12.3171 13.6172V8.97826C12.3171 8.28242 12.7816 7.81853 13.4784 7.81853C14.1752 7.81853 14.6398 8.28242 14.6398 8.97826V13.6172C14.6398 14.3131 14.1752 14.7769 13.4784 14.7769Z" fill="#6598cb"/>
<path d="M13.4784 19.4159C13.13 19.4159 12.8978 19.2999 12.6655 19.068C12.4332 18.836 12.3171 18.6041 12.3171 18.2562C12.3171 18.1402 12.3171 17.9082 12.4332 17.7923C12.5494 17.6763 12.5494 17.5603 12.6655 17.4443C13.0139 17.0964 13.4784 16.9804 13.943 17.2124C14.0591 17.2124 14.0591 17.2124 14.1752 17.3284C14.1752 17.3284 14.2914 17.4443 14.4075 17.4443C14.5236 17.5603 14.6398 17.6763 14.6398 17.7923C14.6398 17.9082 14.6398 18.1402 14.6398 18.2562C14.6398 18.3721 14.6398 18.6041 14.5236 18.7201C14.4075 18.836 14.4075 18.952 14.2914 19.068C14.0591 19.2999 13.8268 19.4159 13.4784 19.4159Z" fill="#6598cb"/>
</svg>
